<svg width="32" height="32" viewBox="0 0 32 32" fill="none" xmlns="http://www.w3.org/2000/svg">
<rect width="32" height="32" rx="2" fill="white" fill-opacity="0.2"/>
<path d="M11.8598 9.93388C11.8598 11.0019 10.9957 11.8678 9.9299 11.8678C8.86404 11.8678 8 11.0019 8 9.93388C8 8.86583 8.86404 8 9.9299 8C10.9957 8 11.8598 8.86583 11.8598 9.93388Z" fill="white"/>
<path d="M8.26392 13.2893H11.5629V24H8.26392V13.2893Z" fill="white"/>
<path d="M16.8742 13.2893H13.5753V24H16.8742C16.8742 24 16.8742 20.6281 16.8742 18.5198C16.8742 17.2544 17.2775 15.9835 18.8866 15.9835C20.7051 15.9835 20.6941 17.6395 20.6857 18.9224C20.6746 20.5994 20.701 22.3107 20.701 24H24V18.3471C23.9721 14.7376 23.0942 13.0744 20.2062 13.0744C18.4911 13.0744 17.428 13.9086 16.8742 14.6634V13.2893Z" fill="white"/>
</svg>
