<svg width="127" height="29" viewBox="0 0 127 29" fill="none" xmlns="http://www.w3.org/2000/svg">
<g clip-path="url(#clip0_291_1857)">
<path d="M1.51163 9.1579L16.6307 9.1579C17.4657 9.1579 18.1426 8.47454 18.1426 7.63158V4.57895C18.1426 3.73599 17.4657 3.05263 16.6307 3.05263L1.51163 3.05263C0.676624 3.05263 -0.000278473 3.73599 -0.000278473 4.57895V7.63158C-0.000278473 8.47454 0.676624 9.1579 1.51163 9.1579Z" fill="white"/>
<path d="M18.1433 15.2632C18.1433 16.1061 17.4664 16.7895 16.6314 16.7895H12.4736V10.6842H16.6314C17.4664 10.6842 18.1433 11.3676 18.1433 12.2105V15.2632Z" fill="white" fill-opacity="0.1"/>
<path d="M18.1431 22.8947C18.1431 23.7377 17.4663 24.4211 16.6312 24.4211H5.66992V18.3158H16.6312C17.4663 18.3158 18.1431 18.9991 18.1431 19.8421V22.8947Z" fill="white" fill-opacity="0.1"/>
<path d="M5.66964 24.4211H1.5119C0.676902 24.4211 -6.38734e-08 23.7377 0 22.8947L2.31305e-07 19.8421C2.95178e-07 18.9991 0.676904 18.3158 1.5119 18.3158H5.66964V24.4211Z" fill="white"/>
<path d="M12.4732 16.7895H1.5119C0.676902 16.7895 -6.38733e-08 16.1061 0 15.2632L2.31306e-07 12.2105C2.9518e-07 11.3676 0.676904 10.6842 1.5119 10.6842H12.4732V16.7895Z" fill="white"/>
<path d="M32.5601 22.8947H29.0283V5.55576H40.422V8.82818H32.5601V12.4669H40.0592V15.7393H32.5601V22.8947ZM49.3178 10.0004V13.2484C49.0759 13.1996 48.85 13.1751 48.6404 13.1751C47.6244 13.1751 46.8584 13.4438 46.3424 13.981C45.8424 14.5183 45.5924 15.3649 45.5924 16.5208V22.8947H42.1574V10.0981H45.3263V11.7587C46.0521 10.5702 47.2454 9.97597 48.9065 9.97597L49.3178 10.0004ZM62.4431 17.4977H53.2507C53.3636 18.3768 53.6861 19.0525 54.2183 19.5246C54.7505 19.9805 55.452 20.2084 56.3229 20.2084C56.8713 20.2084 57.3631 20.0944 57.7985 19.8665C58.2501 19.6223 58.5726 19.2723 58.7661 18.8164H62.2254C61.8545 20.1188 61.1208 21.1771 60.024 21.9911C58.9436 22.7889 57.6775 23.1878 56.2261 23.1878C54.3554 23.1878 52.8234 22.5609 51.6299 21.3073C50.4366 20.0538 49.8398 18.442 49.8398 16.472C49.8398 14.5671 50.4366 12.9798 51.6299 11.7099C52.8234 10.44 54.3474 9.80502 56.2019 9.80502C58.0566 9.80502 59.5644 10.44 60.7256 11.7099C61.9029 12.9635 62.4915 14.5508 62.4915 16.472L62.4431 17.4977ZM56.1777 12.589C55.4036 12.589 54.7667 12.8088 54.2667 13.2484C53.7669 13.6717 53.4442 14.2578 53.2991 15.0067H59.0564C58.9274 14.2741 58.613 13.688 58.113 13.2484C57.6131 12.8088 56.968 12.589 56.1777 12.589ZM68.2473 22.8947H64.8122V4.57892H68.2473V22.8947ZM79.0474 17.1313L75.9994 17.6442C74.7093 17.8721 74.0642 18.3768 74.0642 19.1583C74.0642 20.0538 74.7011 20.5014 75.9752 20.5014C76.959 20.5014 77.7169 20.2409 78.2491 19.72C78.7813 19.199 79.0474 18.507 79.0474 17.6442V17.1313ZM75.2011 23.1878C73.7819 23.1878 72.6853 22.8295 71.9112 22.1132C71.1371 21.3969 70.7501 20.4445 70.7501 19.256C70.7501 18.1326 71.1451 17.2371 71.9354 16.5697C72.7417 15.9022 73.9836 15.4382 75.6608 15.1777L79.0474 14.6648V14.5427C79.0474 13.2891 78.2895 12.6623 76.7735 12.6623C75.3543 12.6623 74.5722 13.1833 74.427 14.2252H71.0404C71.1533 12.9716 71.6693 11.9215 72.5886 11.0749C73.5078 10.2283 74.8947 9.80502 76.7493 9.80502C78.5878 9.80502 79.9747 10.2202 80.9101 11.0505C81.8455 11.8808 82.3131 13.053 82.3131 14.5671V20.5991C82.3131 21.5596 82.4341 22.3249 82.676 22.8947H79.3619C79.3457 22.8947 79.3297 22.8378 79.3135 22.7238C79.2973 22.6097 79.2731 22.4388 79.2409 22.2109C79.2248 21.9667 79.2168 21.7225 79.2168 21.4783C78.4265 22.618 77.088 23.1878 75.2011 23.1878ZM88.8234 21.5271V27.9743H85.3883V10.0981H88.5573V11.661C89.396 10.4237 90.7344 9.80502 92.5729 9.80502C94.363 9.80502 95.7822 10.44 96.8304 11.7099C97.8786 12.9798 98.4028 14.5753 98.4028 16.4964C98.4028 18.4176 97.8786 20.013 96.8304 21.2829C95.7822 22.5528 94.363 23.1878 92.5729 23.1878C91.7343 23.1878 90.9844 23.0331 90.3232 22.7238C89.6781 22.3982 89.1782 21.9992 88.8234 21.5271ZM89.5733 13.8833C89.0089 14.5671 88.7266 15.4382 88.7266 16.4964C88.7266 17.5546 89.0089 18.4257 89.5733 19.1094C90.1539 19.7932 90.9118 20.1351 91.8472 20.1351C92.7826 20.1351 93.5325 19.7932 94.0969 19.1094C94.6775 18.4257 94.9678 17.5546 94.9678 16.4964C94.9678 15.4382 94.6775 14.5671 94.0969 13.8833C93.5325 13.1995 92.7826 12.8577 91.8472 12.8577C90.9118 12.8577 90.1539 13.1995 89.5733 13.8833ZM108.388 17.1313L105.34 17.6442C104.05 17.8721 103.405 18.3768 103.405 19.1583C103.405 20.0538 104.042 20.5014 105.316 20.5014C106.299 20.5014 107.057 20.2409 107.59 19.72C108.122 19.199 108.388 18.507 108.388 17.6442V17.1313ZM104.542 23.1878C103.122 23.1878 102.026 22.8295 101.252 22.1132C100.478 21.3969 100.091 20.4445 100.091 19.256C100.091 18.1326 100.486 17.2371 101.276 16.5697C102.082 15.9022 103.324 15.4382 105.001 15.1777L108.388 14.6648V14.5427C108.388 13.2891 107.63 12.6623 106.114 12.6623C104.695 12.6623 103.913 13.1833 103.768 14.2252H100.381C100.494 12.9716 101.01 11.9215 101.929 11.0749C102.848 10.2283 104.235 9.80502 106.09 9.80502C107.928 9.80502 109.315 10.2202 110.251 11.0505C111.186 11.8808 111.654 13.053 111.654 14.5671V20.5991C111.654 21.5596 111.775 22.3249 112.016 22.8947H108.702C108.686 22.8947 108.67 22.8378 108.654 22.7238C108.638 22.6097 108.614 22.4388 108.581 22.2109C108.565 21.9667 108.557 21.7225 108.557 21.4783C107.767 22.618 106.428 23.1878 104.542 23.1878ZM115.492 27.9743L117.62 22.6749L112.613 10.0981H116.266L119.314 18.6454L122.386 10.0981H125.966L118.878 27.9743H115.492Z" fill="white"/>
</g>
<defs>
<clipPath id="clip0_291_1857">
<rect width="127" height="29" fill="white"/>
</clipPath>
</defs>
</svg>
