<svg width="32" height="32" viewBox="0 0 32 32" fill="none" xmlns="http://www.w3.org/2000/svg">
<rect width="32" height="32" rx="2" fill="white" fill-opacity="0.2"/>
<path d="M22.3554 12.294C22.3655 12.4386 22.3655 12.5832 22.3655 12.7277C22.3655 17.1369 19.066 22.2174 13.0356 22.2174C11.1777 22.2174 9.45179 21.6701 8 20.7201C8.26397 20.7511 8.51775 20.7614 8.79188 20.7614C10.3249 20.7614 11.736 20.2348 12.863 19.3364C11.4213 19.3054 10.2132 18.3451 9.79694 17.0234C10 17.0543 10.203 17.075 10.4163 17.075C10.7107 17.075 11.0051 17.0337 11.2792 16.9614C9.77666 16.6516 8.64972 15.3092 8.64972 13.688V13.6467C9.08625 13.8946 9.59391 14.0495 10.1319 14.0701C9.24869 13.4712 8.67003 12.4489 8.67003 11.2924C8.67003 10.6728 8.83244 10.1049 9.11672 9.60922C10.7309 11.6331 13.1574 12.9549 15.8782 13.0994C15.8274 12.8516 15.7969 12.5935 15.7969 12.3353C15.7969 10.4973 17.2589 9 19.0761 9C20.0203 9 20.8731 9.40272 21.4721 10.0533C22.2132 9.9087 22.9238 9.62988 23.5533 9.24783C23.3096 10.0223 22.7919 10.6728 22.1117 11.0859C22.7716 11.0136 23.4112 10.8277 24 10.5696C23.5534 11.2304 22.995 11.819 22.3554 12.294Z" fill="white"/>
</svg>
